<svg width="129" height="127" viewBox="0 0 129 127" fill="none" xmlns="http://www.w3.org/2000/svg">
<path d="M64.5 127C100.122 127 129 98.5701 129 63.5V0H64.5C28.8776 0 0 28.4299 0 63.5C0 98.5701 28.8776 127 64.5 127Z" fill="#3F1B33"/>
<path d="M64.5 119C95.7041 119 121 94.1518 121 63.5V8H64.5C33.2959 8 8 32.8482 8 63.5C8 94.1518 33.2959 119 64.5 119Z" fill="#EAD1B3"/>
<ellipse cx="64.5" cy="63.5" rx="48.5" ry="47.5" fill="#BA2E27"/>
<ellipse cx="4.00012" cy="12" rx="4.00012" ry="12" transform="matrix(0.712609 0.701561 -0.712609 0.701561 84.3871 38.928)" fill="#EAD1B3"/>
<ellipse cx="4.00012" cy="12" rx="4.00012" ry="12" transform="matrix(0.712609 0.701561 -0.712609 0.701561 56.7216 66.3284)" fill="#EAD1B3"/>
<ellipse cx="4.00012" cy="8.00024" rx="4.00012" ry="8.00024" transform="matrix(0.712609 -0.701561 0.712609 0.701561 67.3502 71.9189)" fill="#EAD1B3"/>
<ellipse cx="4.00012" cy="8.00024" rx="4.00012" ry="8.00024" transform="matrix(0.712609 -0.701561 0.712609 0.701561 44.5459 49.4683)" fill="#EAD1B3"/>
</svg>
